%TF.GenerationSoftware,KiCad,Pcbnew,7.0.11*%
%TF.CreationDate,2024-12-27T12:08:23+01:00*%
%TF.ProjectId,Esp32 dev board,45737033-3220-4646-9576-20626f617264,rev?*%
%TF.SameCoordinates,Original*%
%TF.FileFunction,Legend,Bot*%
%TF.FilePolarity,Positive*%
%FSLAX46Y46*%
G04 Gerber Fmt 4.6, Leading zero omitted, Abs format (unit mm)*
G04 Created by KiCad (PCBNEW 7.0.11) date 2024-12-27 12:08:23*
%MOMM*%
%LPD*%
G01*
G04 APERTURE LIST*
%ADD10C,0.100000*%
G04 APERTURE END LIST*
D10*
X226776115Y-57232419D02*
X226776115Y-56565752D01*
X226776115Y-56756228D02*
X226728496Y-56660990D01*
X226728496Y-56660990D02*
X226680877Y-56613371D01*
X226680877Y-56613371D02*
X226585639Y-56565752D01*
X226585639Y-56565752D02*
X226490401Y-56565752D01*
X225776115Y-57184800D02*
X225871353Y-57232419D01*
X225871353Y-57232419D02*
X226061829Y-57232419D01*
X226061829Y-57232419D02*
X226157067Y-57184800D01*
X226157067Y-57184800D02*
X226204686Y-57089561D01*
X226204686Y-57089561D02*
X226204686Y-56708609D01*
X226204686Y-56708609D02*
X226157067Y-56613371D01*
X226157067Y-56613371D02*
X226061829Y-56565752D01*
X226061829Y-56565752D02*
X225871353Y-56565752D01*
X225871353Y-56565752D02*
X225776115Y-56613371D01*
X225776115Y-56613371D02*
X225728496Y-56708609D01*
X225728496Y-56708609D02*
X225728496Y-56803847D01*
X225728496Y-56803847D02*
X226204686Y-56899085D01*
X225395162Y-56565752D02*
X225157067Y-57232419D01*
X225157067Y-57232419D02*
X224918972Y-56565752D01*
X224585638Y-56327657D02*
X224538019Y-56280038D01*
X224538019Y-56280038D02*
X224442781Y-56232419D01*
X224442781Y-56232419D02*
X224204686Y-56232419D01*
X224204686Y-56232419D02*
X224109448Y-56280038D01*
X224109448Y-56280038D02*
X224061829Y-56327657D01*
X224061829Y-56327657D02*
X224014210Y-56422895D01*
X224014210Y-56422895D02*
X224014210Y-56518133D01*
X224014210Y-56518133D02*
X224061829Y-56660990D01*
X224061829Y-56660990D02*
X224633257Y-57232419D01*
X224633257Y-57232419D02*
X224014210Y-57232419D01*
X226823734Y-57937657D02*
X226776115Y-57890038D01*
X226776115Y-57890038D02*
X226680877Y-57842419D01*
X226680877Y-57842419D02*
X226442782Y-57842419D01*
X226442782Y-57842419D02*
X226347544Y-57890038D01*
X226347544Y-57890038D02*
X226299925Y-57937657D01*
X226299925Y-57937657D02*
X226252306Y-58032895D01*
X226252306Y-58032895D02*
X226252306Y-58128133D01*
X226252306Y-58128133D02*
X226299925Y-58270990D01*
X226299925Y-58270990D02*
X226871353Y-58842419D01*
X226871353Y-58842419D02*
X226252306Y-58842419D01*
X225918972Y-57842419D02*
X225252306Y-57842419D01*
X225252306Y-57842419D02*
X225680877Y-58842419D01*
X224157068Y-57794800D02*
X225014210Y-59080514D01*
X223299925Y-58842419D02*
X223871353Y-58842419D01*
X223585639Y-58842419D02*
X223585639Y-57842419D01*
X223585639Y-57842419D02*
X223680877Y-57985276D01*
X223680877Y-57985276D02*
X223776115Y-58080514D01*
X223776115Y-58080514D02*
X223871353Y-58128133D01*
X222918972Y-57937657D02*
X222871353Y-57890038D01*
X222871353Y-57890038D02*
X222776115Y-57842419D01*
X222776115Y-57842419D02*
X222538020Y-57842419D01*
X222538020Y-57842419D02*
X222442782Y-57890038D01*
X222442782Y-57890038D02*
X222395163Y-57937657D01*
X222395163Y-57937657D02*
X222347544Y-58032895D01*
X222347544Y-58032895D02*
X222347544Y-58128133D01*
X222347544Y-58128133D02*
X222395163Y-58270990D01*
X222395163Y-58270990D02*
X222966591Y-58842419D01*
X222966591Y-58842419D02*
X222347544Y-58842419D01*
X221204687Y-57794800D02*
X222061829Y-59080514D01*
X220918972Y-57937657D02*
X220871353Y-57890038D01*
X220871353Y-57890038D02*
X220776115Y-57842419D01*
X220776115Y-57842419D02*
X220538020Y-57842419D01*
X220538020Y-57842419D02*
X220442782Y-57890038D01*
X220442782Y-57890038D02*
X220395163Y-57937657D01*
X220395163Y-57937657D02*
X220347544Y-58032895D01*
X220347544Y-58032895D02*
X220347544Y-58128133D01*
X220347544Y-58128133D02*
X220395163Y-58270990D01*
X220395163Y-58270990D02*
X220966591Y-58842419D01*
X220966591Y-58842419D02*
X220347544Y-58842419D01*
X219728496Y-57842419D02*
X219633258Y-57842419D01*
X219633258Y-57842419D02*
X219538020Y-57890038D01*
X219538020Y-57890038D02*
X219490401Y-57937657D01*
X219490401Y-57937657D02*
X219442782Y-58032895D01*
X219442782Y-58032895D02*
X219395163Y-58223371D01*
X219395163Y-58223371D02*
X219395163Y-58461466D01*
X219395163Y-58461466D02*
X219442782Y-58651942D01*
X219442782Y-58651942D02*
X219490401Y-58747180D01*
X219490401Y-58747180D02*
X219538020Y-58794800D01*
X219538020Y-58794800D02*
X219633258Y-58842419D01*
X219633258Y-58842419D02*
X219728496Y-58842419D01*
X219728496Y-58842419D02*
X219823734Y-58794800D01*
X219823734Y-58794800D02*
X219871353Y-58747180D01*
X219871353Y-58747180D02*
X219918972Y-58651942D01*
X219918972Y-58651942D02*
X219966591Y-58461466D01*
X219966591Y-58461466D02*
X219966591Y-58223371D01*
X219966591Y-58223371D02*
X219918972Y-58032895D01*
X219918972Y-58032895D02*
X219871353Y-57937657D01*
X219871353Y-57937657D02*
X219823734Y-57890038D01*
X219823734Y-57890038D02*
X219728496Y-57842419D01*
X219014210Y-57937657D02*
X218966591Y-57890038D01*
X218966591Y-57890038D02*
X218871353Y-57842419D01*
X218871353Y-57842419D02*
X218633258Y-57842419D01*
X218633258Y-57842419D02*
X218538020Y-57890038D01*
X218538020Y-57890038D02*
X218490401Y-57937657D01*
X218490401Y-57937657D02*
X218442782Y-58032895D01*
X218442782Y-58032895D02*
X218442782Y-58128133D01*
X218442782Y-58128133D02*
X218490401Y-58270990D01*
X218490401Y-58270990D02*
X219061829Y-58842419D01*
X219061829Y-58842419D02*
X218442782Y-58842419D01*
X217585639Y-58175752D02*
X217585639Y-58842419D01*
X217823734Y-57794800D02*
X218061829Y-58509085D01*
X218061829Y-58509085D02*
X217442782Y-58509085D01*
X225756115Y-71012419D02*
X225756115Y-70012419D01*
X225756115Y-70393371D02*
X225660877Y-70345752D01*
X225660877Y-70345752D02*
X225470401Y-70345752D01*
X225470401Y-70345752D02*
X225375163Y-70393371D01*
X225375163Y-70393371D02*
X225327544Y-70440990D01*
X225327544Y-70440990D02*
X225279925Y-70536228D01*
X225279925Y-70536228D02*
X225279925Y-70821942D01*
X225279925Y-70821942D02*
X225327544Y-70917180D01*
X225327544Y-70917180D02*
X225375163Y-70964800D01*
X225375163Y-70964800D02*
X225470401Y-71012419D01*
X225470401Y-71012419D02*
X225660877Y-71012419D01*
X225660877Y-71012419D02*
X225756115Y-70964800D01*
X224946591Y-70345752D02*
X224708496Y-71012419D01*
X224470401Y-70345752D02*
X224708496Y-71012419D01*
X224708496Y-71012419D02*
X224803734Y-71250514D01*
X224803734Y-71250514D02*
X224851353Y-71298133D01*
X224851353Y-71298133D02*
X224946591Y-71345752D01*
X225756115Y-72098609D02*
X225422782Y-72098609D01*
X225279925Y-72622419D02*
X225756115Y-72622419D01*
X225756115Y-72622419D02*
X225756115Y-71622419D01*
X225756115Y-71622419D02*
X225279925Y-71622419D01*
X224708496Y-72622419D02*
X224803734Y-72574800D01*
X224803734Y-72574800D02*
X224851353Y-72479561D01*
X224851353Y-72479561D02*
X224851353Y-71622419D01*
X224327543Y-72622419D02*
X224327543Y-71955752D01*
X224327543Y-71622419D02*
X224375162Y-71670038D01*
X224375162Y-71670038D02*
X224327543Y-71717657D01*
X224327543Y-71717657D02*
X224279924Y-71670038D01*
X224279924Y-71670038D02*
X224327543Y-71622419D01*
X224327543Y-71622419D02*
X224327543Y-71717657D01*
X223898972Y-72574800D02*
X223756115Y-72622419D01*
X223756115Y-72622419D02*
X223518020Y-72622419D01*
X223518020Y-72622419D02*
X223422782Y-72574800D01*
X223422782Y-72574800D02*
X223375163Y-72527180D01*
X223375163Y-72527180D02*
X223327544Y-72431942D01*
X223327544Y-72431942D02*
X223327544Y-72336704D01*
X223327544Y-72336704D02*
X223375163Y-72241466D01*
X223375163Y-72241466D02*
X223422782Y-72193847D01*
X223422782Y-72193847D02*
X223518020Y-72146228D01*
X223518020Y-72146228D02*
X223708496Y-72098609D01*
X223708496Y-72098609D02*
X223803734Y-72050990D01*
X223803734Y-72050990D02*
X223851353Y-72003371D01*
X223851353Y-72003371D02*
X223898972Y-71908133D01*
X223898972Y-71908133D02*
X223898972Y-71812895D01*
X223898972Y-71812895D02*
X223851353Y-71717657D01*
X223851353Y-71717657D02*
X223803734Y-71670038D01*
X223803734Y-71670038D02*
X223708496Y-71622419D01*
X223708496Y-71622419D02*
X223470401Y-71622419D01*
X223470401Y-71622419D02*
X223327544Y-71670038D01*
X222898972Y-71955752D02*
X222898972Y-72955752D01*
X222898972Y-72003371D02*
X222803734Y-71955752D01*
X222803734Y-71955752D02*
X222613258Y-71955752D01*
X222613258Y-71955752D02*
X222518020Y-72003371D01*
X222518020Y-72003371D02*
X222470401Y-72050990D01*
X222470401Y-72050990D02*
X222422782Y-72146228D01*
X222422782Y-72146228D02*
X222422782Y-72431942D01*
X222422782Y-72431942D02*
X222470401Y-72527180D01*
X222470401Y-72527180D02*
X222518020Y-72574800D01*
X222518020Y-72574800D02*
X222613258Y-72622419D01*
X222613258Y-72622419D02*
X222803734Y-72622419D01*
X222803734Y-72622419D02*
X222898972Y-72574800D01*
X221565639Y-72622419D02*
X221565639Y-72098609D01*
X221565639Y-72098609D02*
X221613258Y-72003371D01*
X221613258Y-72003371D02*
X221708496Y-71955752D01*
X221708496Y-71955752D02*
X221898972Y-71955752D01*
X221898972Y-71955752D02*
X221994210Y-72003371D01*
X221565639Y-72574800D02*
X221660877Y-72622419D01*
X221660877Y-72622419D02*
X221898972Y-72622419D01*
X221898972Y-72622419D02*
X221994210Y-72574800D01*
X221994210Y-72574800D02*
X222041829Y-72479561D01*
X222041829Y-72479561D02*
X222041829Y-72384323D01*
X222041829Y-72384323D02*
X221994210Y-72289085D01*
X221994210Y-72289085D02*
X221898972Y-72241466D01*
X221898972Y-72241466D02*
X221660877Y-72241466D01*
X221660877Y-72241466D02*
X221565639Y-72193847D01*
X221089448Y-72622419D02*
X221089448Y-71955752D01*
X221089448Y-72146228D02*
X221041829Y-72050990D01*
X221041829Y-72050990D02*
X220994210Y-72003371D01*
X220994210Y-72003371D02*
X220898972Y-71955752D01*
X220898972Y-71955752D02*
X220803734Y-71955752D01*
X220470400Y-72622419D02*
X220470400Y-71622419D01*
X220375162Y-72241466D02*
X220089448Y-72622419D01*
X220089448Y-71955752D02*
X220470400Y-72336704D01*
X218946590Y-72574800D02*
X218851352Y-72622419D01*
X218851352Y-72622419D02*
X218660876Y-72622419D01*
X218660876Y-72622419D02*
X218565638Y-72574800D01*
X218565638Y-72574800D02*
X218518019Y-72479561D01*
X218518019Y-72479561D02*
X218518019Y-72431942D01*
X218518019Y-72431942D02*
X218565638Y-72336704D01*
X218565638Y-72336704D02*
X218660876Y-72289085D01*
X218660876Y-72289085D02*
X218803733Y-72289085D01*
X218803733Y-72289085D02*
X218898971Y-72241466D01*
X218898971Y-72241466D02*
X218946590Y-72146228D01*
X218946590Y-72146228D02*
X218946590Y-72098609D01*
X218946590Y-72098609D02*
X218898971Y-72003371D01*
X218898971Y-72003371D02*
X218803733Y-71955752D01*
X218803733Y-71955752D02*
X218660876Y-71955752D01*
X218660876Y-71955752D02*
X218565638Y-72003371D01*
X217946590Y-72622419D02*
X218041828Y-72574800D01*
X218041828Y-72574800D02*
X218089447Y-72527180D01*
X218089447Y-72527180D02*
X218137066Y-72431942D01*
X218137066Y-72431942D02*
X218137066Y-72146228D01*
X218137066Y-72146228D02*
X218089447Y-72050990D01*
X218089447Y-72050990D02*
X218041828Y-72003371D01*
X218041828Y-72003371D02*
X217946590Y-71955752D01*
X217946590Y-71955752D02*
X217803733Y-71955752D01*
X217803733Y-71955752D02*
X217708495Y-72003371D01*
X217708495Y-72003371D02*
X217660876Y-72050990D01*
X217660876Y-72050990D02*
X217613257Y-72146228D01*
X217613257Y-72146228D02*
X217613257Y-72431942D01*
X217613257Y-72431942D02*
X217660876Y-72527180D01*
X217660876Y-72527180D02*
X217708495Y-72574800D01*
X217708495Y-72574800D02*
X217803733Y-72622419D01*
X217803733Y-72622419D02*
X217946590Y-72622419D01*
X217041828Y-72622419D02*
X217137066Y-72574800D01*
X217137066Y-72574800D02*
X217184685Y-72479561D01*
X217184685Y-72479561D02*
X217184685Y-71622419D01*
X216232304Y-71955752D02*
X216232304Y-72622419D01*
X216660875Y-71955752D02*
X216660875Y-72479561D01*
X216660875Y-72479561D02*
X216613256Y-72574800D01*
X216613256Y-72574800D02*
X216518018Y-72622419D01*
X216518018Y-72622419D02*
X216375161Y-72622419D01*
X216375161Y-72622419D02*
X216279923Y-72574800D01*
X216279923Y-72574800D02*
X216232304Y-72527180D01*
X215898970Y-71955752D02*
X215518018Y-71955752D01*
X215756113Y-71622419D02*
X215756113Y-72479561D01*
X215756113Y-72479561D02*
X215708494Y-72574800D01*
X215708494Y-72574800D02*
X215613256Y-72622419D01*
X215613256Y-72622419D02*
X215518018Y-72622419D01*
X215184684Y-72622419D02*
X215184684Y-71955752D01*
X215184684Y-71622419D02*
X215232303Y-71670038D01*
X215232303Y-71670038D02*
X215184684Y-71717657D01*
X215184684Y-71717657D02*
X215137065Y-71670038D01*
X215137065Y-71670038D02*
X215184684Y-71622419D01*
X215184684Y-71622419D02*
X215184684Y-71717657D01*
X214565637Y-72622419D02*
X214660875Y-72574800D01*
X214660875Y-72574800D02*
X214708494Y-72527180D01*
X214708494Y-72527180D02*
X214756113Y-72431942D01*
X214756113Y-72431942D02*
X214756113Y-72146228D01*
X214756113Y-72146228D02*
X214708494Y-72050990D01*
X214708494Y-72050990D02*
X214660875Y-72003371D01*
X214660875Y-72003371D02*
X214565637Y-71955752D01*
X214565637Y-71955752D02*
X214422780Y-71955752D01*
X214422780Y-71955752D02*
X214327542Y-72003371D01*
X214327542Y-72003371D02*
X214279923Y-72050990D01*
X214279923Y-72050990D02*
X214232304Y-72146228D01*
X214232304Y-72146228D02*
X214232304Y-72431942D01*
X214232304Y-72431942D02*
X214279923Y-72527180D01*
X214279923Y-72527180D02*
X214327542Y-72574800D01*
X214327542Y-72574800D02*
X214422780Y-72622419D01*
X214422780Y-72622419D02*
X214565637Y-72622419D01*
X213803732Y-71955752D02*
X213803732Y-72622419D01*
X213803732Y-72050990D02*
X213756113Y-72003371D01*
X213756113Y-72003371D02*
X213660875Y-71955752D01*
X213660875Y-71955752D02*
X213518018Y-71955752D01*
X213518018Y-71955752D02*
X213422780Y-72003371D01*
X213422780Y-72003371D02*
X213375161Y-72098609D01*
X213375161Y-72098609D02*
X213375161Y-72622419D01*
M02*
