%TF.GenerationSoftware,KiCad,Pcbnew,7.0.11*%
%TF.CreationDate,2024-12-27T12:08:23+01:00*%
%TF.ProjectId,Esp32 dev board,45737033-3220-4646-9576-20626f617264,rev?*%
%TF.SameCoordinates,Original*%
%TF.FileFunction,Copper,L2,Bot*%
%TF.FilePolarity,Positive*%
%FSLAX46Y46*%
G04 Gerber Fmt 4.6, Leading zero omitted, Abs format (unit mm)*
G04 Created by KiCad (PCBNEW 7.0.11) date 2024-12-27 12:08:23*
%MOMM*%
%LPD*%
G01*
G04 APERTURE LIST*
%TA.AperFunction,ComponentPad*%
%ADD10R,1.700000X1.700000*%
%TD*%
%TA.AperFunction,ComponentPad*%
%ADD11O,1.700000X1.700000*%
%TD*%
%TA.AperFunction,ViaPad*%
%ADD12C,0.700000*%
%TD*%
%TA.AperFunction,ViaPad*%
%ADD13C,0.600000*%
%TD*%
%TA.AperFunction,Conductor*%
%ADD14C,0.300000*%
%TD*%
%TA.AperFunction,Conductor*%
%ADD15C,0.500000*%
%TD*%
G04 APERTURE END LIST*
D10*
%TO.P,J4,1,Pin_1*%
%TO.N,+3.3V*%
X199180000Y-76830000D03*
D11*
%TO.P,J4,2,Pin_2*%
%TO.N,/I2C2_SCL*%
X201720000Y-76830000D03*
%TO.P,J4,3,Pin_3*%
%TO.N,/I2C2_SDA*%
X204260000Y-76830000D03*
%TO.P,J4,4,Pin_4*%
%TO.N,GND*%
X206800000Y-76830000D03*
%TD*%
D10*
%TO.P,J2,1,Pin_1*%
%TO.N,+3.3V*%
X217510000Y-42910000D03*
D11*
%TO.P,J2,2,Pin_2*%
%TO.N,/SWDIO*%
X214970000Y-42910000D03*
%TO.P,J2,3,Pin_3*%
%TO.N,/SWCLK*%
X212430000Y-42910000D03*
%TO.P,J2,4,Pin_4*%
%TO.N,GND*%
X209890000Y-42910000D03*
%TD*%
D10*
%TO.P,J3,1,Pin_1*%
%TO.N,+3.3V*%
X203830000Y-42850000D03*
D11*
%TO.P,J3,2,Pin_2*%
%TO.N,/USART_TX*%
X201290000Y-42850000D03*
%TO.P,J3,3,Pin_3*%
%TO.N,/USART_RX*%
X198750000Y-42850000D03*
%TO.P,J3,4,Pin_4*%
%TO.N,GND*%
X196210000Y-42850000D03*
%TD*%
D12*
%TO.N,GND*%
X223710000Y-66680000D03*
D13*
X216830000Y-56450000D03*
X207740000Y-57990000D03*
X188740000Y-62340000D03*
X200590000Y-52080000D03*
%TO.N,+3.3V*%
X209490000Y-60320000D03*
X209070000Y-56040000D03*
X211390000Y-56260000D03*
X211350000Y-57930000D03*
X203790000Y-50210000D03*
X199960000Y-50230000D03*
X201330000Y-72710000D03*
X199330000Y-73340000D03*
X202070000Y-69830000D03*
X203690000Y-69810000D03*
%TO.N,GND*%
X215360000Y-69090000D03*
X216230000Y-69120000D03*
X220120000Y-69570000D03*
X215950000Y-65620000D03*
X215920000Y-64440000D03*
X193099643Y-59942500D03*
X193370000Y-63510000D03*
X193560000Y-66980000D03*
X198750000Y-67000000D03*
X198010000Y-60810000D03*
X202870000Y-62490000D03*
X189900000Y-49970000D03*
X193280000Y-58090000D03*
X194570000Y-54990000D03*
%TD*%
D14*
%TO.N,+3.3V*%
X209490000Y-56460000D02*
X209070000Y-56040000D01*
X209490000Y-60320000D02*
X209490000Y-56460000D01*
D15*
X211350000Y-57930000D02*
X211350000Y-56300000D01*
X211350000Y-56300000D02*
X211390000Y-56260000D01*
D14*
X199960000Y-50230000D02*
X203770000Y-50230000D01*
X203770000Y-50230000D02*
X203790000Y-50210000D01*
D15*
X200700000Y-73340000D02*
X201330000Y-72710000D01*
X199330000Y-73340000D02*
X200700000Y-73340000D01*
D14*
X202090000Y-69810000D02*
X202070000Y-69830000D01*
X203690000Y-69810000D02*
X202090000Y-69810000D01*
%TD*%
%TA.AperFunction,Conductor*%
%TO.N,GND*%
G36*
X224407597Y-40020185D02*
G01*
X224436984Y-40046538D01*
X228171644Y-44665724D01*
X228198486Y-44730232D01*
X228199215Y-44744478D01*
X227999830Y-75947991D01*
X227979718Y-76014904D01*
X227962425Y-76035956D01*
X223936356Y-79963829D01*
X223874624Y-79996554D01*
X223848722Y-79999068D01*
X188246185Y-79699887D01*
X188179313Y-79679639D01*
X188165572Y-79669211D01*
X186441484Y-78160634D01*
X185943452Y-77724856D01*
X198029500Y-77724856D01*
X198029502Y-77724882D01*
X198032413Y-77749987D01*
X198032415Y-77749991D01*
X198077793Y-77852764D01*
X198077794Y-77852765D01*
X198157235Y-77932206D01*
X198260009Y-77977585D01*
X198285135Y-77980500D01*
X200074864Y-77980499D01*
X200074879Y-77980497D01*
X200074882Y-77980497D01*
X200099987Y-77977586D01*
X200099988Y-77977585D01*
X200099991Y-77977585D01*
X200202765Y-77932206D01*
X200282206Y-77852765D01*
X200327585Y-77749991D01*
X200330500Y-77724865D01*
X200330499Y-76986046D01*
X200350183Y-76919009D01*
X200402987Y-76873254D01*
X200472146Y-76863310D01*
X200535702Y-76892335D01*
X200573476Y-76951113D01*
X200577970Y-76974606D01*
X200584244Y-77042310D01*
X200642596Y-77247392D01*
X200642596Y-77247394D01*
X200737632Y-77438253D01*
X200866127Y-77608406D01*
X200866128Y-77608407D01*
X201023698Y-77752052D01*
X201204981Y-77864298D01*
X201403802Y-77941321D01*
X201613390Y-77980500D01*
X201613392Y-77980500D01*
X201826608Y-77980500D01*
X201826610Y-77980500D01*
X202036198Y-77941321D01*
X202235019Y-77864298D01*
X202416302Y-77752052D01*
X202573872Y-77608407D01*
X202702366Y-77438255D01*
X202756270Y-77330000D01*
X202797403Y-77247394D01*
X202797403Y-77247393D01*
X202797405Y-77247389D01*
X202855756Y-77042310D01*
X202866529Y-76926047D01*
X202892315Y-76861111D01*
X202934622Y-76830804D01*
X203043130Y-76830804D01*
X203079503Y-76851668D01*
X203111693Y-76913681D01*
X203113471Y-76926048D01*
X203124244Y-77042310D01*
X203182596Y-77247392D01*
X203182596Y-77247394D01*
X203277632Y-77438253D01*
X203406127Y-77608406D01*
X203406128Y-77608407D01*
X203563698Y-77752052D01*
X203744981Y-77864298D01*
X203943802Y-77941321D01*
X204153390Y-77980500D01*
X204153392Y-77980500D01*
X204366608Y-77980500D01*
X204366610Y-77980500D01*
X204576198Y-77941321D01*
X204775019Y-77864298D01*
X204956302Y-77752052D01*
X205113872Y-77608407D01*
X205242366Y-77438255D01*
X205309325Y-77303781D01*
X205356825Y-77252548D01*
X205424488Y-77235126D01*
X205490828Y-77257051D01*
X205532705Y-77306651D01*
X205626399Y-77507578D01*
X205761894Y-77701082D01*
X205928917Y-77868105D01*
X206122421Y-78003600D01*
X206336507Y-78103429D01*
X206336516Y-78103433D01*
X206550000Y-78160634D01*
X206550000Y-77265501D01*
X206657685Y-77314680D01*
X206764237Y-77330000D01*
X206835763Y-77330000D01*
X206942315Y-77314680D01*
X207050000Y-77265501D01*
X207050000Y-78160633D01*
X207263483Y-78103433D01*
X207263492Y-78103429D01*
X207477578Y-78003600D01*
X207671082Y-77868105D01*
X207838105Y-77701082D01*
X207973600Y-77507578D01*
X208073429Y-77293492D01*
X208073432Y-77293486D01*
X208130636Y-77080000D01*
X207233686Y-77080000D01*
X207259493Y-77039844D01*
X207300000Y-76901889D01*
X207300000Y-76758111D01*
X207259493Y-76620156D01*
X207233686Y-76580000D01*
X208130636Y-76580000D01*
X208130635Y-76579999D01*
X208073432Y-76366513D01*
X208073429Y-76366507D01*
X207973600Y-76152422D01*
X207973599Y-76152420D01*
X207838113Y-75958926D01*
X207838108Y-75958920D01*
X207671082Y-75791894D01*
X207477578Y-75656399D01*
X207399519Y-75620000D01*
X222514341Y-75620000D01*
X222534936Y-75855403D01*
X222534938Y-75855413D01*
X222596094Y-76083655D01*
X222596096Y-76083659D01*
X222596097Y-76083663D01*
X222628159Y-76152420D01*
X222695964Y-76297828D01*
X222695965Y-76297830D01*
X222831505Y-76491402D01*
X222998597Y-76658494D01*
X223192169Y-76794034D01*
X223192171Y-76794035D01*
X223406337Y-76893903D01*
X223406343Y-76893904D01*
X223406344Y-76893905D01*
X223461285Y-76908626D01*
X223634592Y-76955063D01*
X223811032Y-76970499D01*
X223811033Y-76970500D01*
X223811034Y-76970500D01*
X223928967Y-76970500D01*
X223928967Y-76970499D01*
X224105408Y-76955063D01*
X224333663Y-76893903D01*
X224547829Y-76794035D01*
X224741401Y-76658495D01*
X224908495Y-76491401D01*
X225044035Y-76297830D01*
X225143903Y-76083663D01*
X225205063Y-75855408D01*
X225225659Y-75620000D01*
X225205063Y-75384592D01*
X225143903Y-75156337D01*
X225044035Y-74942171D01*
X225044034Y-74942169D01*
X224908494Y-74748597D01*
X224741402Y-74581505D01*
X224547830Y-74445965D01*
X224547828Y-74445964D01*
X224424804Y-74388597D01*
X224333663Y-74346097D01*
X224333659Y-74346096D01*
X224333655Y-74346094D01*
X224105413Y-74284938D01*
X224105403Y-74284936D01*
X223928967Y-74269500D01*
X223928966Y-74269500D01*
X223811034Y-74269500D01*
X223811033Y-74269500D01*
X223634596Y-74284936D01*
X223634586Y-74284938D01*
X223406344Y-74346094D01*
X223406335Y-74346098D01*
X223192171Y-74445964D01*
X223192169Y-74445965D01*
X222998597Y-74581505D01*
X222831506Y-74748597D01*
X222831501Y-74748604D01*
X222695967Y-74942165D01*
X222695965Y-74942169D01*
X222596098Y-75156335D01*
X222596094Y-75156344D01*
X222534938Y-75384586D01*
X222534936Y-75384596D01*
X222514341Y-75619999D01*
X222514341Y-75620000D01*
X207399519Y-75620000D01*
X207263492Y-75556570D01*
X207263486Y-75556567D01*
X207050000Y-75499364D01*
X207050000Y-76394498D01*
X206942315Y-76345320D01*
X206835763Y-76330000D01*
X206764237Y-76330000D01*
X206657685Y-76345320D01*
X206550000Y-76394498D01*
X206550000Y-75499364D01*
X206549999Y-75499364D01*
X206336513Y-75556567D01*
X206336507Y-75556570D01*
X206122422Y-75656399D01*
X206122420Y-75656400D01*
X205928926Y-75791886D01*
X205928920Y-75791891D01*
X205761891Y-75958920D01*
X205761886Y-75958926D01*
X205626400Y-76152420D01*
X205626399Y-76152422D01*
X205532705Y-76353348D01*
X205486532Y-76405787D01*
X205419339Y-76424939D01*
X205352457Y-76404723D01*
X205309324Y-76356216D01*
X205242366Y-76221745D01*
X205225881Y-76199916D01*
X205113872Y-76051593D01*
X205057044Y-75999787D01*
X204956302Y-75907948D01*
X204775019Y-75795702D01*
X204775017Y-75795701D01*
X204675608Y-75757190D01*
X204576198Y-75718679D01*
X204366610Y-75679500D01*
X204153390Y-75679500D01*
X203943802Y-75718679D01*
X203943799Y-75718679D01*
X203943799Y-75718680D01*
X203744982Y-75795701D01*
X203744980Y-75795702D01*
X203563699Y-75907947D01*
X203406127Y-76051593D01*
X203277632Y-76221746D01*
X203182596Y-76412605D01*
X203182596Y-76412607D01*
X203124244Y-76617689D01*
X203113471Y-76733951D01*
X203087685Y-76798888D01*
X203043130Y-76830804D01*
X202934622Y-76830804D01*
X202936869Y-76829194D01*
X202900497Y-76808331D01*
X202868307Y-76746318D01*
X202866529Y-76733951D01*
X202863175Y-76697759D01*
X202855756Y-76617690D01*
X202797405Y-76412611D01*
X202797403Y-76412606D01*
X202797403Y-76412605D01*
X202702367Y-76221746D01*
X202573872Y-76051593D01*
X202517044Y-75999787D01*
X202416302Y-75907948D01*
X202235019Y-75795702D01*
X202235017Y-75795701D01*
X202135608Y-75757190D01*
X202036198Y-75718679D01*
X201826610Y-75679500D01*
X201613390Y-75679500D01*
X201403802Y-75718679D01*
X201403799Y-75718679D01*
X201403799Y-75718680D01*
X201204982Y-75795701D01*
X201204980Y-75795702D01*
X201023699Y-75907947D01*
X200866127Y-76051593D01*
X200737632Y-76221746D01*
X200642596Y-76412605D01*
X200642596Y-76412607D01*
X200584244Y-76617689D01*
X200577970Y-76685394D01*
X200552183Y-76750331D01*
X200495383Y-76791018D01*
X200425602Y-76794538D01*
X200364995Y-76759772D01*
X200332806Y-76697759D01*
X200330499Y-76673952D01*
X200330499Y-75935143D01*
X200330499Y-75935136D01*
X200330497Y-75935117D01*
X200327586Y-75910012D01*
X200327585Y-75910010D01*
X200327585Y-75910009D01*
X200282206Y-75807235D01*
X200202765Y-75727794D01*
X200182124Y-75718680D01*
X200099992Y-75682415D01*
X200074865Y-75679500D01*
X198285143Y-75679500D01*
X198285117Y-75679502D01*
X198260012Y-75682413D01*
X198260008Y-75682415D01*
X198157235Y-75727793D01*
X198077794Y-75807234D01*
X198032415Y-75910006D01*
X198032415Y-75910008D01*
X198029500Y-75935131D01*
X198029500Y-77724856D01*
X185943452Y-77724856D01*
X184243017Y-76236976D01*
X184205529Y-76178018D01*
X184200675Y-76143280D01*
X184203410Y-75260000D01*
X188124341Y-75260000D01*
X188144936Y-75495403D01*
X188144938Y-75495413D01*
X188206094Y-75723655D01*
X188206096Y-75723659D01*
X188206097Y-75723663D01*
X188237914Y-75791894D01*
X188305964Y-75937828D01*
X188305965Y-75937830D01*
X188441505Y-76131402D01*
X188608597Y-76298494D01*
X188802169Y-76434034D01*
X188802171Y-76434035D01*
X189016337Y-76533903D01*
X189244592Y-76595063D01*
X189421032Y-76610499D01*
X189421033Y-76610500D01*
X189421034Y-76610500D01*
X189538967Y-76610500D01*
X189538967Y-76610499D01*
X189715408Y-76595063D01*
X189943663Y-76533903D01*
X190157829Y-76434035D01*
X190351401Y-76298495D01*
X190518495Y-76131401D01*
X190654035Y-75937830D01*
X190753903Y-75723663D01*
X190815063Y-75495408D01*
X190835659Y-75260000D01*
X190815063Y-75024592D01*
X190753903Y-74796337D01*
X190654035Y-74582171D01*
X190654034Y-74582169D01*
X190518494Y-74388597D01*
X190351402Y-74221505D01*
X190157830Y-74085965D01*
X190157828Y-74085964D01*
X190050746Y-74036031D01*
X189943663Y-73986097D01*
X189943659Y-73986096D01*
X189943655Y-73986094D01*
X189715413Y-73924938D01*
X189715403Y-73924936D01*
X189538967Y-73909500D01*
X189538966Y-73909500D01*
X189421034Y-73909500D01*
X189421033Y-73909500D01*
X189244596Y-73924936D01*
X189244586Y-73924938D01*
X189016344Y-73986094D01*
X189016335Y-73986098D01*
X188802171Y-74085964D01*
X188802169Y-74085965D01*
X188608597Y-74221505D01*
X188441506Y-74388597D01*
X188441501Y-74388604D01*
X188305967Y-74582165D01*
X188305965Y-74582169D01*
X188206098Y-74796335D01*
X188206094Y-74796344D01*
X188144938Y-75024586D01*
X188144936Y-75024596D01*
X188124341Y-75259999D01*
X188124341Y-75260000D01*
X184203410Y-75260000D01*
X184209354Y-73340001D01*
X198724318Y-73340001D01*
X198744955Y-73496760D01*
X198744956Y-73496762D01*
X198805464Y-73642841D01*
X198901718Y-73768282D01*
X199027159Y-73864536D01*
X199173238Y-73925044D01*
X199251619Y-73935363D01*
X199329999Y-73945682D01*
X199330000Y-73945682D01*
X199330001Y-73945682D01*
X199382254Y-73938802D01*
X199486762Y-73925044D01*
X199547370Y-73899938D01*
X199594823Y-73890500D01*
X200688478Y-73890500D01*
X200692710Y-73890572D01*
X200694674Y-73890639D01*
X200756826Y-73892762D01*
X200796755Y-73883030D01*
X200809192Y-73880667D01*
X200849920Y-73875070D01*
X200866383Y-73867918D01*
X200886416Y-73861181D01*
X200903852Y-73856933D01*
X200939695Y-73836778D01*
X200951015Y-73831157D01*
X200988720Y-73814780D01*
X201002632Y-73803460D01*
X201020123Y-73791557D01*
X201035755Y-73782768D01*
X201035753Y-73782768D01*
X201035759Y-73782766D01*
X201064822Y-73753701D01*
X201074229Y-73745212D01*
X201106108Y-73719278D01*
X201116456Y-73704616D01*
X201130074Y-73688449D01*
X201532006Y-73286517D01*
X201572228Y-73259641D01*
X201632841Y-73234536D01*
X201758282Y-73138282D01*
X201854536Y-73012841D01*
X201915044Y-72866762D01*
X201929997Y-72753181D01*
X201935682Y-72710001D01*
X201935682Y-72709998D01*
X201915044Y-72553239D01*
X201915044Y-72553238D01*
X201854536Y-72407159D01*
X201758282Y-72281718D01*
X201632841Y-72185464D01*
X201486762Y-72124956D01*
X201486760Y-72124955D01*
X201330001Y-72104318D01*
X201329999Y-72104318D01*
X201173239Y-72124955D01*
X201173237Y-72124956D01*
X201027160Y-72185463D01*
X200901716Y-72281719D01*
X200805464Y-72407158D01*
X200805464Y-72407159D01*
X200780358Y-72467769D01*
X200753478Y-72507996D01*
X200508294Y-72753181D01*
X200446971Y-72786666D01*
X200420613Y-72789500D01*
X199594823Y-72789500D01*
X199547370Y-72780061D01*
X199486762Y-72754956D01*
X199486760Y-72754955D01*
X199330001Y-72734318D01*
X199329999Y-72734318D01*
X199173239Y-72754955D01*
X199173237Y-72754956D01*
X199027160Y-72815463D01*
X198901718Y-72911718D01*
X198805463Y-73037160D01*
X198744956Y-73183237D01*
X198744955Y-73183239D01*
X198724318Y-73339998D01*
X198724318Y-73340001D01*
X184209354Y-73340001D01*
X184220221Y-69830001D01*
X201464318Y-69830001D01*
X201484955Y-69986760D01*
X201484956Y-69986762D01*
X201545464Y-70132841D01*
X201641718Y-70258282D01*
X201767159Y-70354536D01*
X201913238Y-70415044D01*
X201991619Y-70425363D01*
X202069999Y-70435682D01*
X202070000Y-70435682D01*
X202070001Y-70435682D01*
X202122254Y-70428802D01*
X202226762Y-70415044D01*
X202372836Y-70354538D01*
X202372837Y-70354538D01*
X202372837Y-70354537D01*
X202372841Y-70354536D01*
X202461998Y-70286123D01*
X202527166Y-70260930D01*
X202537483Y-70260500D01*
X203248581Y-70260500D01*
X203315620Y-70280185D01*
X203324067Y-70286124D01*
X203387157Y-70334535D01*
X203387158Y-70334535D01*
X203387159Y-70334536D01*
X203533238Y-70395044D01*
X203611619Y-70405363D01*
X203689999Y-70415682D01*
X203690000Y-70415682D01*
X203690001Y-70415682D01*
X203742254Y-70408802D01*
X203846762Y-70395044D01*
X203992841Y-70334536D01*
X204118282Y-70238282D01*
X204214536Y-70112841D01*
X204275044Y-69966762D01*
X204295682Y-69810000D01*
X204275044Y-69653238D01*
X204214536Y-69507159D01*
X204118282Y-69381718D01*
X203992841Y-69285464D01*
X203846762Y-69224956D01*
X203846760Y-69224955D01*
X203690001Y-69204318D01*
X203689999Y-69204318D01*
X203533239Y-69224955D01*
X203533237Y-69224956D01*
X203387157Y-69285464D01*
X203324067Y-69333876D01*
X203258898Y-69359070D01*
X203248581Y-69359500D01*
X202485354Y-69359500D01*
X202418315Y-69339815D01*
X202409881Y-69333886D01*
X202372841Y-69305464D01*
X202372838Y-69305463D01*
X202372836Y-69305461D01*
X202226765Y-69244957D01*
X202226760Y-69244955D01*
X202070001Y-69224318D01*
X202069999Y-69224318D01*
X201913239Y-69244955D01*
X201913237Y-69244956D01*
X201767160Y-69305463D01*
X201641718Y-69401718D01*
X201545463Y-69527160D01*
X201484956Y-69673237D01*
X201484955Y-69673239D01*
X201464318Y-69829998D01*
X201464318Y-69830001D01*
X184220221Y-69830001D01*
X184262914Y-56040001D01*
X208464318Y-56040001D01*
X208484955Y-56196760D01*
X208484956Y-56196762D01*
X208535164Y-56317976D01*
X208545464Y-56342841D01*
X208641718Y-56468282D01*
X208767159Y-56564536D01*
X208913238Y-56625044D01*
X208931683Y-56627472D01*
X208995580Y-56655737D01*
X209034052Y-56714061D01*
X209039500Y-56750411D01*
X209039500Y-59878580D01*
X209019815Y-59945619D01*
X209013876Y-59954066D01*
X208965464Y-60017157D01*
X208904956Y-60163237D01*
X208904955Y-60163239D01*
X208884318Y-60319998D01*
X208884318Y-60320001D01*
X208904955Y-60476760D01*
X208904956Y-60476762D01*
X208965464Y-60622841D01*
X209061718Y-60748282D01*
X209187159Y-60844536D01*
X209333238Y-60905044D01*
X209409918Y-60915139D01*
X209489999Y-60925682D01*
X209490000Y-60925682D01*
X209490001Y-60925682D01*
X209542254Y-60918802D01*
X209646762Y-60905044D01*
X209792841Y-60844536D01*
X209918282Y-60748282D01*
X210014536Y-60622841D01*
X210075044Y-60476762D01*
X210095682Y-60320000D01*
X210095031Y-60315055D01*
X221744500Y-60315055D01*
X221785210Y-60480226D01*
X221864263Y-60630849D01*
X221864266Y-60630852D01*
X221977071Y-60758183D01*
X222067318Y-60820476D01*
X222117068Y-60854817D01*
X222117069Y-60854817D01*
X222117070Y-60854818D01*
X222276128Y-60915140D01*
X222352028Y-60924356D01*
X222402626Y-60930500D01*
X222402628Y-60930500D01*
X222487374Y-60930500D01*
X222529538Y-60925380D01*
X222613872Y-60915140D01*
X222772930Y-60854818D01*
X222912929Y-60758183D01*
X223025734Y-60630852D01*
X223104790Y-60480225D01*
X223145500Y-60315056D01*
X223145500Y-60144944D01*
X223104790Y-59979775D01*
X223091297Y-59954066D01*
X223025736Y-59829150D01*
X223006560Y-59807505D01*
X222912929Y-59701817D01*
X222863177Y-59667475D01*
X222772931Y-59605182D01*
X222613874Y-59544860D01*
X222613868Y-59544859D01*
X222487374Y-59529500D01*
X222487372Y-59529500D01*
X222402628Y-59529500D01*
X222402626Y-59529500D01*
X222276131Y-59544859D01*
X222276125Y-59544860D01*
X222117068Y-59605182D01*
X221977072Y-59701816D01*
X221864263Y-59829150D01*
X221785210Y-59979773D01*
X221744500Y-60144944D01*
X221744500Y-60315055D01*
X210095031Y-60315055D01*
X210075044Y-60163238D01*
X210014536Y-60017159D01*
X210014535Y-60017158D01*
X210014535Y-60017157D01*
X209966124Y-59954066D01*
X209940930Y-59888896D01*
X209940500Y-59878580D01*
X209940500Y-57930001D01*
X210744318Y-57930001D01*
X210764955Y-58086760D01*
X210764956Y-58086762D01*
X210825464Y-58232841D01*
X210921718Y-58358282D01*
X211047159Y-58454536D01*
X211193238Y-58515044D01*
X211271619Y-58525363D01*
X211349999Y-58535682D01*
X211350000Y-58535682D01*
X211350001Y-58535682D01*
X211402254Y-58528802D01*
X211506762Y-58515044D01*
X211652841Y-58454536D01*
X211778282Y-58358282D01*
X211874536Y-58232841D01*
X211935044Y-58086762D01*
X211955682Y-57930000D01*
X211935044Y-57773238D01*
X211909939Y-57712628D01*
X211900500Y-57665176D01*
X211900500Y-56620378D01*
X211913659Y-56571276D01*
X211911426Y-56570351D01*
X211946655Y-56485300D01*
X211975044Y-56416762D01*
X211995682Y-56260000D01*
X211995547Y-56258977D01*
X211975044Y-56103239D01*
X211975044Y-56103238D01*
X211914536Y-55957159D01*
X211882229Y-55915056D01*
X221744500Y-55915056D01*
X221758598Y-55972255D01*
X221785210Y-56080226D01*
X221864263Y-56230849D01*
X221864266Y-56230852D01*
X221977071Y-56358183D01*
X222018517Y-56386791D01*
X222117068Y-56454817D01*
X222117069Y-56454817D01*
X222117070Y-56454818D01*
X222276128Y-56515140D01*
X222352028Y-56524356D01*
X222402626Y-56530500D01*
X222402628Y-56530500D01*
X222487374Y-56530500D01*
X222529538Y-56525380D01*
X222613872Y-56515140D01*
X222772930Y-56454818D01*
X222912929Y-56358183D01*
X223025734Y-56230852D01*
X223043847Y-56196342D01*
X223092412Y-56103809D01*
X223104790Y-56080225D01*
X223145500Y-55915056D01*
X223145500Y-55744944D01*
X223104790Y-55579775D01*
X223071037Y-55515464D01*
X223025736Y-55429150D01*
X223006560Y-55407505D01*
X222912929Y-55301817D01*
X222863177Y-55267475D01*
X222772931Y-55205182D01*
X222613874Y-55144860D01*
X222613868Y-55144859D01*
X222487374Y-55129500D01*
X222487372Y-55129500D01*
X222402628Y-55129500D01*
X222402626Y-55129500D01*
X222276131Y-55144859D01*
X222276125Y-55144860D01*
X222117068Y-55205182D01*
X221977072Y-55301816D01*
X221864263Y-55429150D01*
X221785210Y-55579773D01*
X221761750Y-55674956D01*
X221744500Y-55744944D01*
X221744500Y-55915056D01*
X211882229Y-55915056D01*
X211818282Y-55831718D01*
X211692841Y-55735464D01*
X211546762Y-55674956D01*
X211546760Y-55674955D01*
X211390001Y-55654318D01*
X211389999Y-55654318D01*
X211233239Y-55674955D01*
X211233237Y-55674956D01*
X211087160Y-55735463D01*
X210961718Y-55831718D01*
X210865463Y-55957160D01*
X210804956Y-56103237D01*
X210804955Y-56103239D01*
X210784318Y-56259998D01*
X210784318Y-56260000D01*
X210790838Y-56309528D01*
X210798439Y-56367259D01*
X210799500Y-56383444D01*
X210799500Y-57665176D01*
X210790061Y-57712628D01*
X210764957Y-57773234D01*
X210764955Y-57773239D01*
X210744318Y-57929998D01*
X210744318Y-57930001D01*
X209940500Y-57930001D01*
X209940500Y-56492261D01*
X209941280Y-56478376D01*
X209942418Y-56468281D01*
X209945270Y-56442965D01*
X209934637Y-56386770D01*
X209933864Y-56382217D01*
X209925348Y-56325713D01*
X209925347Y-56325711D01*
X209925347Y-56325709D01*
X209922831Y-56317552D01*
X209920024Y-56309528D01*
X209893306Y-56258977D01*
X209891215Y-56254835D01*
X209866424Y-56203356D01*
X209861642Y-56196342D01*
X209856567Y-56189466D01*
X209856566Y-56189463D01*
X209816165Y-56149062D01*
X209812947Y-56145721D01*
X209774060Y-56103809D01*
X209766792Y-56098014D01*
X209767312Y-56097361D01*
X209755067Y-56087964D01*
X209700681Y-56033578D01*
X209667196Y-55972255D01*
X209665425Y-55962097D01*
X209655044Y-55883238D01*
X209594536Y-55737159D01*
X209498282Y-55611718D01*
X209372841Y-55515464D01*
X209226762Y-55454956D01*
X209226760Y-55454955D01*
X209070001Y-55434318D01*
X209069999Y-55434318D01*
X208913239Y-55454955D01*
X208913237Y-55454956D01*
X208767160Y-55515463D01*
X208641718Y-55611718D01*
X208545463Y-55737160D01*
X208484956Y-55883237D01*
X208484955Y-55883239D01*
X208464318Y-56039998D01*
X208464318Y-56040001D01*
X184262914Y-56040001D01*
X184269864Y-53795055D01*
X185739500Y-53795055D01*
X185780210Y-53960226D01*
X185859263Y-54110849D01*
X185859266Y-54110852D01*
X185972071Y-54238183D01*
X186062318Y-54300476D01*
X186112068Y-54334817D01*
X186112069Y-54334817D01*
X186112070Y-54334818D01*
X186271128Y-54395140D01*
X186347028Y-54404356D01*
X186397626Y-54410500D01*
X186397628Y-54410500D01*
X186482374Y-54410500D01*
X186524538Y-54405380D01*
X186608872Y-54395140D01*
X186767930Y-54334818D01*
X186907929Y-54238183D01*
X187020734Y-54110852D01*
X187099790Y-53960225D01*
X187140500Y-53795056D01*
X187140500Y-53624944D01*
X187099790Y-53459775D01*
X187099789Y-53459773D01*
X187020736Y-53309150D01*
X187001560Y-53287505D01*
X186907929Y-53181817D01*
X186858177Y-53147475D01*
X186767931Y-53085182D01*
X186608874Y-53024860D01*
X186608868Y-53024859D01*
X186482374Y-53009500D01*
X186482372Y-53009500D01*
X186397628Y-53009500D01*
X186397626Y-53009500D01*
X186271131Y-53024859D01*
X186271125Y-53024860D01*
X186112068Y-53085182D01*
X185972072Y-53181816D01*
X185859263Y-53309150D01*
X185780210Y-53459773D01*
X185739500Y-53624944D01*
X185739500Y-53795055D01*
X184269864Y-53795055D01*
X184279152Y-50795055D01*
X185739500Y-50795055D01*
X185780210Y-50960226D01*
X185859263Y-51110849D01*
X185859266Y-51110852D01*
X185972071Y-51238183D01*
X186062318Y-51300476D01*
X186112068Y-51334817D01*
X186112069Y-51334817D01*
X186112070Y-51334818D01*
X186271128Y-51395140D01*
X186347028Y-51404356D01*
X186397626Y-51410500D01*
X186397628Y-51410500D01*
X186482374Y-51410500D01*
X186524538Y-51405380D01*
X186608872Y-51395140D01*
X186767930Y-51334818D01*
X186907929Y-51238183D01*
X187020734Y-51110852D01*
X187099790Y-50960225D01*
X187140500Y-50795056D01*
X187140500Y-50624944D01*
X187099790Y-50459775D01*
X187099789Y-50459773D01*
X187020736Y-50309150D01*
X186950616Y-50230001D01*
X199354318Y-50230001D01*
X199374955Y-50386760D01*
X199374956Y-50386762D01*
X199435464Y-50532841D01*
X199531718Y-50658282D01*
X199657159Y-50754536D01*
X199803238Y-50815044D01*
X199881619Y-50825363D01*
X199959999Y-50835682D01*
X199960000Y-50835682D01*
X199960001Y-50835682D01*
X200012254Y-50828802D01*
X200116762Y-50815044D01*
X200262841Y-50754536D01*
X200325933Y-50706123D01*
X200391102Y-50680930D01*
X200401419Y-50680500D01*
X203374646Y-50680500D01*
X203441685Y-50700185D01*
X203450118Y-50706113D01*
X203487159Y-50734536D01*
X203487162Y-50734537D01*
X203487163Y-50734538D01*
X203535443Y-50754536D01*
X203633238Y-50795044D01*
X203711619Y-50805363D01*
X203789999Y-50815682D01*
X203790000Y-50815682D01*
X203790001Y-50815682D01*
X203842254Y-50808802D01*
X203946762Y-50795044D01*
X204092841Y-50734536D01*
X204218282Y-50638282D01*
X204314536Y-50512841D01*
X204375044Y-50366762D01*
X204395682Y-50210000D01*
X204375044Y-50053238D01*
X204314536Y-49907159D01*
X204218282Y-49781718D01*
X204092841Y-49685464D01*
X203946762Y-49624956D01*
X203946760Y-49624955D01*
X203790001Y-49604318D01*
X203789999Y-49604318D01*
X203633239Y-49624955D01*
X203633234Y-49624957D01*
X203487163Y-49685461D01*
X203487162Y-49685461D01*
X203448361Y-49715234D01*
X203398001Y-49753876D01*
X203332834Y-49779070D01*
X203322517Y-49779500D01*
X200401419Y-49779500D01*
X200334380Y-49759815D01*
X200325933Y-49753876D01*
X200262842Y-49705464D01*
X200116762Y-49644956D01*
X200116760Y-49644955D01*
X199960001Y-49624318D01*
X199959999Y-49624318D01*
X199803239Y-49644955D01*
X199803237Y-49644956D01*
X199657160Y-49705463D01*
X199531718Y-49801718D01*
X199435463Y-49927160D01*
X199374956Y-50073237D01*
X199374955Y-50073239D01*
X199354318Y-50229998D01*
X199354318Y-50230001D01*
X186950616Y-50230001D01*
X186950613Y-50229998D01*
X186907929Y-50181817D01*
X186858177Y-50147475D01*
X186767931Y-50085182D01*
X186608874Y-50024860D01*
X186608868Y-50024859D01*
X186482374Y-50009500D01*
X186482372Y-50009500D01*
X186397628Y-50009500D01*
X186397626Y-50009500D01*
X186271131Y-50024859D01*
X186271125Y-50024860D01*
X186112068Y-50085182D01*
X185972072Y-50181816D01*
X185859263Y-50309150D01*
X185780210Y-50459773D01*
X185739500Y-50624944D01*
X185739500Y-50795055D01*
X184279152Y-50795055D01*
X184300346Y-43949436D01*
X184320238Y-43882460D01*
X184322174Y-43880000D01*
X188124341Y-43880000D01*
X188144936Y-44115403D01*
X188144938Y-44115413D01*
X188206094Y-44343655D01*
X188206096Y-44343659D01*
X188206097Y-44343663D01*
X188256031Y-44450746D01*
X188305964Y-44557828D01*
X188305965Y-44557830D01*
X188441505Y-44751402D01*
X188608597Y-44918494D01*
X188802169Y-45054034D01*
X188802171Y-45054035D01*
X189016337Y-45153903D01*
X189244592Y-45215063D01*
X189421032Y-45230499D01*
X189421033Y-45230500D01*
X189421034Y-45230500D01*
X189538967Y-45230500D01*
X189538967Y-45230499D01*
X189715408Y-45215063D01*
X189943663Y-45153903D01*
X190157829Y-45054035D01*
X190351401Y-44918495D01*
X190518495Y-44751401D01*
X190654035Y-44557830D01*
X190753903Y-44343663D01*
X190815063Y-44115408D01*
X190835659Y-43880000D01*
X190815063Y-43644592D01*
X190753903Y-43416337D01*
X190654035Y-43202171D01*
X190654034Y-43202169D01*
X190582495Y-43100000D01*
X194879364Y-43100000D01*
X194936567Y-43313486D01*
X194936570Y-43313492D01*
X195036399Y-43527578D01*
X195171894Y-43721082D01*
X195338917Y-43888105D01*
X195532421Y-44023600D01*
X195746507Y-44123429D01*
X195746516Y-44123433D01*
X195960000Y-44180634D01*
X195960000Y-43285501D01*
X196067685Y-43334680D01*
X196174237Y-43350000D01*
X196245763Y-43350000D01*
X196352315Y-43334680D01*
X196460000Y-43285501D01*
X196460000Y-44180633D01*
X196673483Y-44123433D01*
X196673492Y-44123429D01*
X196887578Y-44023600D01*
X197081082Y-43888105D01*
X197248105Y-43721082D01*
X197383600Y-43527578D01*
X197477294Y-43326651D01*
X197523466Y-43274212D01*
X197590660Y-43255060D01*
X197657541Y-43275276D01*
X197700676Y-43323785D01*
X197767632Y-43458253D01*
X197865295Y-43587578D01*
X197896128Y-43628407D01*
X198053698Y-43772052D01*
X198234981Y-43884298D01*
X198433802Y-43961321D01*
X198643390Y-44000500D01*
X198643392Y-44000500D01*
X198856608Y-44000500D01*
X198856610Y-44000500D01*
X199066198Y-43961321D01*
X199265019Y-43884298D01*
X199446302Y-43772052D01*
X199603872Y-43628407D01*
X199732366Y-43458255D01*
X199753235Y-43416344D01*
X199827403Y-43267394D01*
X199827403Y-43267393D01*
X199827405Y-43267389D01*
X199885756Y-43062310D01*
X199896529Y-42946047D01*
X199922315Y-42881111D01*
X199964622Y-42850804D01*
X200073130Y-42850804D01*
X200109503Y-42871668D01*
X200141693Y-42933681D01*
X200143471Y-42946048D01*
X200154244Y-43062310D01*
X200212596Y-43267392D01*
X200212596Y-43267394D01*
X200307632Y-43458253D01*
X200405295Y-43587578D01*
X200436128Y-43628407D01*
X200593698Y-43772052D01*
X200774981Y-43884298D01*
X200973802Y-43961321D01*
X201183390Y-44000500D01*
X201183392Y-44000500D01*
X201396608Y-44000500D01*
X201396610Y-44000500D01*
X201606198Y-43961321D01*
X201805019Y-43884298D01*
X201986302Y-43772052D01*
X202143872Y-43628407D01*
X202272366Y-43458255D01*
X202293235Y-43416344D01*
X202367403Y-43267394D01*
X202367403Y-43267393D01*
X202367405Y-43267389D01*
X202425756Y-43062310D01*
X202432029Y-42994605D01*
X202457814Y-42929669D01*
X202514614Y-42888981D01*
X202584395Y-42885461D01*
X202645002Y-42920225D01*
X202677193Y-42982238D01*
X202679500Y-43006047D01*
X202679500Y-43744856D01*
X202679502Y-43744882D01*
X202682413Y-43769987D01*
X202682415Y-43769991D01*
X202727793Y-43872764D01*
X202727794Y-43872765D01*
X202807235Y-43952206D01*
X202910009Y-43997585D01*
X202935135Y-44000500D01*
X204724864Y-44000499D01*
X204724879Y-44000497D01*
X204724882Y-44000497D01*
X204749987Y-43997586D01*
X204749988Y-43997585D01*
X204749991Y-43997585D01*
X204852765Y-43952206D01*
X204932206Y-43872765D01*
X204977585Y-43769991D01*
X204980500Y-43744865D01*
X204980500Y-43160000D01*
X208559364Y-43160000D01*
X208616567Y-43373486D01*
X208616570Y-43373492D01*
X208716399Y-43587578D01*
X208851894Y-43781082D01*
X209018917Y-43948105D01*
X209212421Y-44083600D01*
X209426507Y-44183429D01*
X209426516Y-44183433D01*
X209640000Y-44240634D01*
X209640000Y-43345501D01*
X209747685Y-43394680D01*
X209854237Y-43410000D01*
X209925763Y-43410000D01*
X210032315Y-43394680D01*
X210140000Y-43345501D01*
X210140000Y-44240633D01*
X210353483Y-44183433D01*
X210353492Y-44183429D01*
X210567578Y-44083600D01*
X210761082Y-43948105D01*
X210928105Y-43781082D01*
X211063600Y-43587578D01*
X211157294Y-43386651D01*
X211203466Y-43334212D01*
X211270660Y-43315060D01*
X211337541Y-43335276D01*
X211380676Y-43383785D01*
X211447632Y-43518253D01*
X211543040Y-43644592D01*
X211576128Y-43688407D01*
X211733698Y-43832052D01*
X211914981Y-43944298D01*
X212113802Y-44021321D01*
X212323390Y-44060500D01*
X212323392Y-44060500D01*
X212536608Y-44060500D01*
X212536610Y-44060500D01*
X212746198Y-44021321D01*
X212945019Y-43944298D01*
X213126302Y-43832052D01*
X213283872Y-43688407D01*
X213412366Y-43518255D01*
X213466270Y-43410000D01*
X213507403Y-43327394D01*
X213507403Y-43327393D01*
X213507405Y-43327389D01*
X213565756Y-43122310D01*
X213576529Y-43006047D01*
X213602315Y-42941111D01*
X213644622Y-42910804D01*
X213753130Y-42910804D01*
X213789503Y-42931668D01*
X213821693Y-42993681D01*
X213823471Y-43006048D01*
X213834244Y-43122310D01*
X213892596Y-43327392D01*
X213892596Y-43327394D01*
X213987632Y-43518253D01*
X214083040Y-43644592D01*
X214116128Y-43688407D01*
X214273698Y-43832052D01*
X214454981Y-43944298D01*
X214653802Y-44021321D01*
X214863390Y-44060500D01*
X214863392Y-44060500D01*
X215076608Y-44060500D01*
X215076610Y-44060500D01*
X215286198Y-44021321D01*
X215485019Y-43944298D01*
X215666302Y-43832052D01*
X215823872Y-43688407D01*
X215952366Y-43518255D01*
X216006270Y-43410000D01*
X216047403Y-43327394D01*
X216047403Y-43327393D01*
X216047405Y-43327389D01*
X216105756Y-43122310D01*
X216112029Y-43054605D01*
X216137814Y-42989669D01*
X216194614Y-42948981D01*
X216264395Y-42945461D01*
X216325002Y-42980225D01*
X216357193Y-43042238D01*
X216359500Y-43066047D01*
X216359500Y-43804856D01*
X216359502Y-43804882D01*
X216362413Y-43829987D01*
X216362415Y-43829991D01*
X216407793Y-43932764D01*
X216407794Y-43932765D01*
X216487235Y-44012206D01*
X216590009Y-44057585D01*
X216615135Y-44060500D01*
X218404864Y-44060499D01*
X218404879Y-44060497D01*
X218404882Y-44060497D01*
X218429987Y-44057586D01*
X218429988Y-44057585D01*
X218429991Y-44057585D01*
X218532765Y-44012206D01*
X218544971Y-44000000D01*
X222144341Y-44000000D01*
X222164936Y-44235403D01*
X222164938Y-44235413D01*
X222226094Y-44463655D01*
X222226096Y-44463659D01*
X222226097Y-44463663D01*
X222270007Y-44557828D01*
X222325964Y-44677828D01*
X222325965Y-44677830D01*
X222461505Y-44871402D01*
X222628597Y-45038494D01*
X222822169Y-45174034D01*
X222822171Y-45174035D01*
X223036337Y-45273903D01*
X223264592Y-45335063D01*
X223441032Y-45350499D01*
X223441033Y-45350500D01*
X223441034Y-45350500D01*
X223558967Y-45350500D01*
X223558967Y-45350499D01*
X223735408Y-45335063D01*
X223963663Y-45273903D01*
X224177829Y-45174035D01*
X224371401Y-45038495D01*
X224538495Y-44871401D01*
X224674035Y-44677830D01*
X224773903Y-44463663D01*
X224835063Y-44235408D01*
X224855659Y-44000000D01*
X224835063Y-43764592D01*
X224773903Y-43536337D01*
X224674035Y-43322171D01*
X224674034Y-43322169D01*
X224538494Y-43128597D01*
X224371402Y-42961505D01*
X224177830Y-42825965D01*
X224177828Y-42825964D01*
X224070746Y-42776031D01*
X223963663Y-42726097D01*
X223963659Y-42726096D01*
X223963655Y-42726094D01*
X223735413Y-42664938D01*
X223735403Y-42664936D01*
X223558967Y-42649500D01*
X223558966Y-42649500D01*
X223441034Y-42649500D01*
X223441033Y-42649500D01*
X223264596Y-42664936D01*
X223264586Y-42664938D01*
X223036344Y-42726094D01*
X223036335Y-42726098D01*
X222822171Y-42825964D01*
X222822169Y-42825965D01*
X222628597Y-42961505D01*
X222461506Y-43128597D01*
X222461501Y-43128604D01*
X222325967Y-43322165D01*
X222325965Y-43322169D01*
X222226098Y-43536335D01*
X222226094Y-43536344D01*
X222164938Y-43764586D01*
X222164936Y-43764596D01*
X222144341Y-43999999D01*
X222144341Y-44000000D01*
X218544971Y-44000000D01*
X218612206Y-43932765D01*
X218657585Y-43829991D01*
X218660500Y-43804865D01*
X218660499Y-42015136D01*
X218660497Y-42015117D01*
X218657586Y-41990012D01*
X218657585Y-41990010D01*
X218657585Y-41990009D01*
X218612206Y-41887235D01*
X218532765Y-41807794D01*
X218512124Y-41798680D01*
X218429992Y-41762415D01*
X218404865Y-41759500D01*
X216615143Y-41759500D01*
X216615117Y-41759502D01*
X216590012Y-41762413D01*
X216590008Y-41762415D01*
X216487235Y-41807793D01*
X216407794Y-41887234D01*
X216362415Y-41990006D01*
X216362415Y-41990008D01*
X216359500Y-42015131D01*
X216359500Y-42753951D01*
X216339815Y-42820990D01*
X216287011Y-42866745D01*
X216217853Y-42876689D01*
X216154297Y-42847664D01*
X216116523Y-42788886D01*
X216112029Y-42765391D01*
X216105756Y-42697689D01*
X216077960Y-42599999D01*
X216047405Y-42492611D01*
X216047403Y-42492606D01*
X216047403Y-42492605D01*
X215952367Y-42301746D01*
X215823872Y-42131593D01*
X215666302Y-41987948D01*
X215485019Y-41875702D01*
X215485017Y-41875701D01*
X215359910Y-41827235D01*
X215286198Y-41798679D01*
X215076610Y-41759500D01*
X214863390Y-41759500D01*
X214653802Y-41798679D01*
X214653799Y-41798679D01*
X214653799Y-41798680D01*
X214454982Y-41875701D01*
X214454980Y-41875702D01*
X214273699Y-41987947D01*
X214116127Y-42131593D01*
X213987632Y-42301746D01*
X213892596Y-42492605D01*
X213892596Y-42492607D01*
X213834244Y-42697689D01*
X213823471Y-42813951D01*
X213797685Y-42878888D01*
X213753130Y-42910804D01*
X213644622Y-42910804D01*
X213646869Y-42909194D01*
X213610497Y-42888331D01*
X213578307Y-42826318D01*
X213576529Y-42813951D01*
X213570969Y-42753951D01*
X213565756Y-42697690D01*
X213507405Y-42492611D01*
X213507403Y-42492606D01*
X213507403Y-42492605D01*
X213412367Y-42301746D01*
X213283872Y-42131593D01*
X213126302Y-41987948D01*
X212945019Y-41875702D01*
X212945017Y-41875701D01*
X212819910Y-41827235D01*
X212746198Y-41798679D01*
X212536610Y-41759500D01*
X212323390Y-41759500D01*
X212113802Y-41798679D01*
X212113799Y-41798679D01*
X212113799Y-41798680D01*
X211914982Y-41875701D01*
X211914980Y-41875702D01*
X211733699Y-41987947D01*
X211576127Y-42131593D01*
X211447634Y-42301744D01*
X211380676Y-42436215D01*
X211333173Y-42487452D01*
X211265510Y-42504873D01*
X211199170Y-42482947D01*
X211157294Y-42433348D01*
X211063600Y-42232422D01*
X211063599Y-42232420D01*
X210928113Y-42038926D01*
X210928108Y-42038920D01*
X210761082Y-41871894D01*
X210567578Y-41736399D01*
X210353492Y-41636570D01*
X210353486Y-41636567D01*
X210140000Y-41579364D01*
X210140000Y-42474498D01*
X210032315Y-42425320D01*
X209925763Y-42410000D01*
X209854237Y-42410000D01*
X209747685Y-42425320D01*
X209640000Y-42474498D01*
X209640000Y-41579364D01*
X209639999Y-41579364D01*
X209426513Y-41636567D01*
X209426507Y-41636570D01*
X209212422Y-41736399D01*
X209212420Y-41736400D01*
X209018926Y-41871886D01*
X209018920Y-41871891D01*
X208851891Y-42038920D01*
X208851886Y-42038926D01*
X208716400Y-42232420D01*
X208716399Y-42232422D01*
X208616570Y-42446507D01*
X208616567Y-42446513D01*
X208559364Y-42659999D01*
X208559364Y-42660000D01*
X209456314Y-42660000D01*
X209430507Y-42700156D01*
X209390000Y-42838111D01*
X209390000Y-42981889D01*
X209430507Y-43119844D01*
X209456314Y-43160000D01*
X208559364Y-43160000D01*
X204980500Y-43160000D01*
X204980499Y-41955136D01*
X204980497Y-41955117D01*
X204977586Y-41930012D01*
X204977585Y-41930010D01*
X204977585Y-41930009D01*
X204932206Y-41827235D01*
X204852765Y-41747794D01*
X204832124Y-41738680D01*
X204749992Y-41702415D01*
X204724865Y-41699500D01*
X202935143Y-41699500D01*
X202935117Y-41699502D01*
X202910012Y-41702413D01*
X202910008Y-41702415D01*
X202807235Y-41747793D01*
X202727794Y-41827234D01*
X202682415Y-41930006D01*
X202682415Y-41930008D01*
X202679500Y-41955131D01*
X202679500Y-42693951D01*
X202659815Y-42760990D01*
X202607011Y-42806745D01*
X202537853Y-42816689D01*
X202474297Y-42787664D01*
X202436523Y-42728886D01*
X202432029Y-42705391D01*
X202431315Y-42697690D01*
X202425756Y-42637690D01*
X202367405Y-42432611D01*
X202367403Y-42432606D01*
X202367403Y-42432605D01*
X202272367Y-42241746D01*
X202143872Y-42071593D01*
X202108038Y-42038926D01*
X201986302Y-41927948D01*
X201805019Y-41815702D01*
X201805017Y-41815701D01*
X201659946Y-41759501D01*
X201606198Y-41738679D01*
X201396610Y-41699500D01*
X201183390Y-41699500D01*
X200973802Y-41738679D01*
X200973799Y-41738679D01*
X200973799Y-41738680D01*
X200774982Y-41815701D01*
X200774980Y-41815702D01*
X200593699Y-41927947D01*
X200436127Y-42071593D01*
X200307632Y-42241746D01*
X200212596Y-42432605D01*
X200212596Y-42432607D01*
X200154244Y-42637689D01*
X200143471Y-42753951D01*
X200117685Y-42818888D01*
X200073130Y-42850804D01*
X199964622Y-42850804D01*
X199966869Y-42849194D01*
X199930497Y-42828331D01*
X199898307Y-42766318D01*
X199896529Y-42753951D01*
X199893948Y-42726097D01*
X199885756Y-42637690D01*
X199827405Y-42432611D01*
X199827403Y-42432606D01*
X199827403Y-42432605D01*
X199732367Y-42241746D01*
X199603872Y-42071593D01*
X199568038Y-42038926D01*
X199446302Y-41927948D01*
X199265019Y-41815702D01*
X199265017Y-41815701D01*
X199119946Y-41759501D01*
X199066198Y-41738679D01*
X198856610Y-41699500D01*
X198643390Y-41699500D01*
X198433802Y-41738679D01*
X198433799Y-41738679D01*
X198433799Y-41738680D01*
X198234982Y-41815701D01*
X198234980Y-41815702D01*
X198053699Y-41927947D01*
X197896127Y-42071593D01*
X197767634Y-42241744D01*
X197700676Y-42376215D01*
X197653173Y-42427452D01*
X197585510Y-42444873D01*
X197519170Y-42422947D01*
X197477294Y-42373348D01*
X197383600Y-42172422D01*
X197383599Y-42172420D01*
X197248113Y-41978926D01*
X197248108Y-41978920D01*
X197081082Y-41811894D01*
X196887578Y-41676399D01*
X196673492Y-41576570D01*
X196673486Y-41576567D01*
X196460000Y-41519364D01*
X196460000Y-42414498D01*
X196352315Y-42365320D01*
X196245763Y-42350000D01*
X196174237Y-42350000D01*
X196067685Y-42365320D01*
X195960000Y-42414498D01*
X195960000Y-41519364D01*
X195959999Y-41519364D01*
X195746513Y-41576567D01*
X195746507Y-41576570D01*
X195532422Y-41676399D01*
X195532420Y-41676400D01*
X195338926Y-41811886D01*
X195338920Y-41811891D01*
X195171891Y-41978920D01*
X195171886Y-41978926D01*
X195036400Y-42172420D01*
X195036399Y-42172422D01*
X194936570Y-42386507D01*
X194936567Y-42386513D01*
X194879364Y-42599999D01*
X194879364Y-42600000D01*
X195776314Y-42600000D01*
X195750507Y-42640156D01*
X195710000Y-42778111D01*
X195710000Y-42921889D01*
X195750507Y-43059844D01*
X195776314Y-43100000D01*
X194879364Y-43100000D01*
X190582495Y-43100000D01*
X190518494Y-43008597D01*
X190351402Y-42841505D01*
X190157830Y-42705965D01*
X190157828Y-42705964D01*
X190016702Y-42640156D01*
X189943663Y-42606097D01*
X189943659Y-42606096D01*
X189943655Y-42606094D01*
X189715413Y-42544938D01*
X189715403Y-42544936D01*
X189538967Y-42529500D01*
X189538966Y-42529500D01*
X189421034Y-42529500D01*
X189421033Y-42529500D01*
X189244596Y-42544936D01*
X189244586Y-42544938D01*
X189016344Y-42606094D01*
X189016335Y-42606098D01*
X188802171Y-42705964D01*
X188802169Y-42705965D01*
X188608597Y-42841505D01*
X188441506Y-43008597D01*
X188441501Y-43008604D01*
X188305967Y-43202165D01*
X188305965Y-43202169D01*
X188206098Y-43416335D01*
X188206094Y-43416344D01*
X188144938Y-43644586D01*
X188144936Y-43644596D01*
X188124341Y-43879999D01*
X188124341Y-43880000D01*
X184322174Y-43880000D01*
X184334382Y-43864484D01*
X187963541Y-40039155D01*
X188023962Y-40004069D01*
X188053498Y-40000500D01*
X224340558Y-40000500D01*
X224407597Y-40020185D01*
G37*
%TD.AperFunction*%
%TD*%
M02*
