%TF.GenerationSoftware,KiCad,Pcbnew,7.0.11*%
%TF.CreationDate,2024-12-27T12:08:23+01:00*%
%TF.ProjectId,Esp32 dev board,45737033-3220-4646-9576-20626f617264,rev?*%
%TF.SameCoordinates,Original*%
%TF.FileFunction,Paste,Top*%
%TF.FilePolarity,Positive*%
%FSLAX46Y46*%
G04 Gerber Fmt 4.6, Leading zero omitted, Abs format (unit mm)*
G04 Created by KiCad (PCBNEW 7.0.11) date 2024-12-27 12:08:23*
%MOMM*%
%LPD*%
G01*
G04 APERTURE LIST*
G04 Aperture macros list*
%AMRoundRect*
0 Rectangle with rounded corners*
0 $1 Rounding radius*
0 $2 $3 $4 $5 $6 $7 $8 $9 X,Y pos of 4 corners*
0 Add a 4 corners polygon primitive as box body*
4,1,4,$2,$3,$4,$5,$6,$7,$8,$9,$2,$3,0*
0 Add four circle primitives for the rounded corners*
1,1,$1+$1,$2,$3*
1,1,$1+$1,$4,$5*
1,1,$1+$1,$6,$7*
1,1,$1+$1,$8,$9*
0 Add four rect primitives between the rounded corners*
20,1,$1+$1,$2,$3,$4,$5,0*
20,1,$1+$1,$4,$5,$6,$7,0*
20,1,$1+$1,$6,$7,$8,$9,0*
20,1,$1+$1,$8,$9,$2,$3,0*%
G04 Aperture macros list end*
%ADD10RoundRect,0.140000X0.170000X-0.140000X0.170000X0.140000X-0.170000X0.140000X-0.170000X-0.140000X0*%
%ADD11R,0.800000X1.000000*%
%ADD12R,1.500000X0.700000*%
%ADD13R,2.500000X0.500000*%
%ADD14R,2.500000X2.000000*%
%ADD15RoundRect,0.140000X-0.140000X-0.170000X0.140000X-0.170000X0.140000X0.170000X-0.140000X0.170000X0*%
%ADD16R,1.200000X1.400000*%
%ADD17RoundRect,0.140000X0.140000X0.170000X-0.140000X0.170000X-0.140000X-0.170000X0.140000X-0.170000X0*%
%ADD18RoundRect,0.135000X-0.135000X-0.185000X0.135000X-0.185000X0.135000X0.185000X-0.135000X0.185000X0*%
%ADD19RoundRect,0.135000X-0.185000X0.135000X-0.185000X-0.135000X0.185000X-0.135000X0.185000X0.135000X0*%
%ADD20RoundRect,0.218750X-0.256250X0.218750X-0.256250X-0.218750X0.256250X-0.218750X0.256250X0.218750X0*%
%ADD21RoundRect,0.250000X0.475000X-0.250000X0.475000X0.250000X-0.475000X0.250000X-0.475000X-0.250000X0*%
%ADD22RoundRect,0.135000X0.185000X-0.135000X0.185000X0.135000X-0.185000X0.135000X-0.185000X-0.135000X0*%
%ADD23RoundRect,0.225000X-0.225000X-0.250000X0.225000X-0.250000X0.225000X0.250000X-0.225000X0.250000X0*%
%ADD24RoundRect,0.250000X-0.350000X0.850000X-0.350000X-0.850000X0.350000X-0.850000X0.350000X0.850000X0*%
%ADD25RoundRect,0.250000X-1.125000X1.275000X-1.125000X-1.275000X1.125000X-1.275000X1.125000X1.275000X0*%
%ADD26RoundRect,0.250000X-0.337500X-0.475000X0.337500X-0.475000X0.337500X0.475000X-0.337500X0.475000X0*%
%ADD27RoundRect,0.140000X-0.170000X0.140000X-0.170000X-0.140000X0.170000X-0.140000X0.170000X0.140000X0*%
%ADD28RoundRect,0.135000X0.135000X0.185000X-0.135000X0.185000X-0.135000X-0.185000X0.135000X-0.185000X0*%
%ADD29RoundRect,0.075000X-0.075000X-0.662500X0.075000X-0.662500X0.075000X0.662500X-0.075000X0.662500X0*%
%ADD30RoundRect,0.075000X-0.662500X-0.075000X0.662500X-0.075000X0.662500X0.075000X-0.662500X0.075000X0*%
G04 APERTURE END LIST*
D10*
%TO.C,C6*%
X194560000Y-61860000D03*
X194560000Y-60900000D03*
%TD*%
D11*
%TO.C,SW1*%
X187550000Y-48560000D03*
X185340000Y-48560000D03*
X187550000Y-55860000D03*
X185340000Y-55860000D03*
D12*
X188200000Y-49960000D03*
X188200000Y-52960000D03*
X188200000Y-54460000D03*
%TD*%
D13*
%TO.C,J1*%
X219845000Y-59630000D03*
X219845000Y-58830000D03*
X219845000Y-58030000D03*
X219845000Y-57230000D03*
X219845000Y-56430000D03*
D14*
X219845000Y-62430000D03*
X225345000Y-62430000D03*
X219845000Y-53630000D03*
X225345000Y-53630000D03*
%TD*%
D15*
%TO.C,C1*%
X197780000Y-54080000D03*
X198740000Y-54080000D03*
%TD*%
D16*
%TO.C,Y1*%
X188800000Y-58500000D03*
X188800000Y-60700000D03*
X190500000Y-60700000D03*
X190500000Y-58500000D03*
%TD*%
D17*
%TO.C,C7*%
X194500000Y-64500000D03*
X193540000Y-64500000D03*
%TD*%
%TO.C,C3*%
X204250000Y-66190000D03*
X203290000Y-66190000D03*
%TD*%
D18*
%TO.C,R5*%
X202230000Y-71000000D03*
X203250000Y-71000000D03*
%TD*%
D19*
%TO.C,R2*%
X212430000Y-57890000D03*
X212430000Y-58910000D03*
%TD*%
D20*
%TO.C,D1*%
X221750000Y-69500000D03*
X221750000Y-71075000D03*
%TD*%
D21*
%TO.C,C12*%
X218487500Y-71490000D03*
X218487500Y-69590000D03*
%TD*%
D22*
%TO.C,R3*%
X221750000Y-67760000D03*
X221750000Y-66740000D03*
%TD*%
D10*
%TO.C,C10*%
X192150000Y-59210000D03*
X192150000Y-58250000D03*
%TD*%
D22*
%TO.C,R1*%
X191300000Y-52930000D03*
X191300000Y-51910000D03*
%TD*%
D23*
%TO.C,C5*%
X199215000Y-52290000D03*
X197665000Y-52290000D03*
%TD*%
D10*
%TO.C,C11*%
X192150000Y-61480000D03*
X192150000Y-60520000D03*
%TD*%
%TO.C,C4*%
X194500000Y-57000000D03*
X194500000Y-56040000D03*
%TD*%
D24*
%TO.C,U1*%
X215767500Y-67550000D03*
X213487500Y-67550000D03*
D25*
X215012500Y-72175000D03*
X211962500Y-72175000D03*
X215012500Y-75525000D03*
X211962500Y-75525000D03*
D24*
X211207500Y-67550000D03*
%TD*%
D26*
%TO.C,C13*%
X212412500Y-65040000D03*
X214487500Y-65040000D03*
%TD*%
D15*
%TO.C,C9*%
X197790000Y-66000000D03*
X198750000Y-66000000D03*
%TD*%
D27*
%TO.C,C2*%
X206750000Y-57020000D03*
X206750000Y-57980000D03*
%TD*%
D17*
%TO.C,C8*%
X194480000Y-66000000D03*
X193520000Y-66000000D03*
%TD*%
D28*
%TO.C,R4*%
X201010000Y-71000000D03*
X199990000Y-71000000D03*
%TD*%
D29*
%TO.C,U4*%
X197910000Y-55880000D03*
X198410000Y-55880000D03*
X198910000Y-55880000D03*
X199410000Y-55880000D03*
X199910000Y-55880000D03*
X200410000Y-55880000D03*
X200910000Y-55880000D03*
X201410000Y-55880000D03*
X201910000Y-55880000D03*
X202410000Y-55880000D03*
X202910000Y-55880000D03*
X203410000Y-55880000D03*
D30*
X204822500Y-57292500D03*
X204822500Y-57792500D03*
X204822500Y-58292500D03*
X204822500Y-58792500D03*
X204822500Y-59292500D03*
X204822500Y-59792500D03*
X204822500Y-60292500D03*
X204822500Y-60792500D03*
X204822500Y-61292500D03*
X204822500Y-61792500D03*
X204822500Y-62292500D03*
X204822500Y-62792500D03*
D29*
X203410000Y-64205000D03*
X202910000Y-64205000D03*
X202410000Y-64205000D03*
X201910000Y-64205000D03*
X201410000Y-64205000D03*
X200910000Y-64205000D03*
X200410000Y-64205000D03*
X199910000Y-64205000D03*
X199410000Y-64205000D03*
X198910000Y-64205000D03*
X198410000Y-64205000D03*
X197910000Y-64205000D03*
D30*
X196497500Y-62792500D03*
X196497500Y-62292500D03*
X196497500Y-61792500D03*
X196497500Y-61292500D03*
X196497500Y-60792500D03*
X196497500Y-60292500D03*
X196497500Y-59792500D03*
X196497500Y-59292500D03*
X196497500Y-58792500D03*
X196497500Y-58292500D03*
X196497500Y-57792500D03*
X196497500Y-57292500D03*
%TD*%
D20*
%TO.C,FB1*%
X196000000Y-64500000D03*
X196000000Y-66075000D03*
%TD*%
M02*
