M48
; DRILL file {KiCad 7.0.11} date Fri Dec 27 12:08:04 2024
; FORMAT={-:-/ absolute / metric / decimal}
; #@! TF.CreationDate,2024-12-27T12:08:04+01:00
; #@! TF.GenerationSoftware,Kicad,Pcbnew,7.0.11
; #@! TF.FileFunction,MixedPlating,1,2
FMAT,2
METRIC
; #@! TA.AperFunction,Plated,PTH,ViaDrill
T1C0.300
; #@! TA.AperFunction,Plated,PTH,ComponentDrill
T2C1.000
; #@! TA.AperFunction,NonPlated,NPTH,ComponentDrill
T3C0.900
; #@! TA.AperFunction,NonPlated,NPTH,ComponentDrill
T4C2.200
%
G90
G05
T1
X188.74Y-62.34
X189.9Y-49.97
X193.1Y-59.942
X193.28Y-58.09
X193.37Y-63.51
X193.56Y-66.98
X194.57Y-54.99
X198.01Y-60.81
X198.75Y-67.0
X199.33Y-73.34
X199.96Y-50.23
X200.59Y-52.08
X201.33Y-72.71
X202.07Y-69.83
X202.87Y-62.49
X203.69Y-69.81
X203.79Y-50.21
X207.74Y-57.99
X209.07Y-56.04
X209.49Y-60.32
X211.35Y-57.93
X211.39Y-56.26
X215.36Y-69.09
X215.92Y-64.44
X215.95Y-65.62
X216.23Y-69.12
X216.83Y-56.45
X220.12Y-69.57
X223.71Y-66.68
T2
X196.21Y-42.85
X198.75Y-42.85
X199.18Y-76.83
X201.29Y-42.85
X201.72Y-76.83
X203.83Y-42.85
X204.26Y-76.83
X206.8Y-76.83
X209.89Y-42.91
X212.43Y-42.91
X214.97Y-42.91
X217.51Y-42.91
T3
X186.44Y-50.71
X186.44Y-53.71
X222.445Y-55.83
X222.445Y-60.23
T4
X189.48Y-43.88
X189.48Y-75.26
X223.5Y-44.0
X223.87Y-75.62
M30
